<svg width="512" height="512" viewBox="0 0 512 512" fill="none" xmlns="http://www.w3.org/2000/svg">
<rect width="512" height="512" rx="100" fill="white"/>
<path d="M99.2041 190.39L256.017 280.926L256.017 461.998L115.065 380.619C106.305 375.562 99.2041 363.262 99.2041 353.147L99.2041 190.39Z" fill="url(#paint0_linear_118_571)"/>
<path d="M412.75 190.392L255.937 280.928L255.937 462L396.889 380.621C405.649 375.564 412.75 363.264 412.75 353.149L412.75 190.392Z" fill="url(#paint1_linear_118_571)"/>
<rect width="181.072" height="181.072" transform="matrix(0.866025 -0.5 0.866025 0.5 99.2041 190.39)" fill="url(#paint2_radial_118_571)"/>
<path d="M231.407 115.817C225.347 115.817 220.434 110.904 220.434 104.844C220.434 98.783 225.347 93.87 231.407 93.87C237.468 93.87 242.381 98.783 242.381 104.844C242.381 110.904 237.468 115.817 231.407 115.817Z" fill="#85674E"/>
<path d="M196.177 170.45H193.806C190.386 170.085 186.94 170.572 183.687 171.882C180.434 173.191 177.445 175.295 174.911 178.057C172.376 180.82 170.352 184.182 168.967 187.929C166.429 194.793 171.357 201.569 178.178 204.221L189.981 208.81C192.523 209.798 195.168 210.497 197.867 210.892L209.814 212.64C222.501 214.497 235.386 214.56 248.09 212.828L262.143 210.913C265.139 210.504 268.065 209.689 270.841 208.49L289.431 200.459C290.326 200.072 290.906 199.19 290.906 198.215C290.921 193.378 289.412 188.711 286.677 185.139C283.942 181.568 280.182 179.353 276.142 178.934L216.869 172.507" fill="url(#paint3_radial_118_571)"/>
<path d="M203.309 158.633C203.309 164.976 203.309 171.319 204.133 177.662C204.133 179.819 204.514 181.912 204.768 184.005C205.402 189.587 206.227 194.915 207.241 199.863H232.614L232.106 198.277C230.647 193.774 229.315 188.953 228.174 183.879C227.73 181.849 227.286 179.819 226.842 177.535C225.7 171.192 224.748 164.849 224.051 158.506C224.051 156.413 223.607 154.383 223.416 152.163C222.719 143.727 222.338 135.1 222.401 126.791C222.401 124.634 222.401 122.541 222.401 120.448C222.556 112.467 223.191 104.502 224.304 96.5979C224.304 95.0122 224.748 93.4264 225.002 91.9041H220.752C219.855 93.0968 219.109 94.3966 218.532 95.7733C218.532 94.5047 219.04 93.2995 219.23 92.0309H217.2C217.517 93.6167 217.708 95.2024 218.088 96.7882C217.508 95.0473 216.675 93.4015 215.614 91.9041H211.238C211.238 93.1092 210.54 94.3144 210.286 95.5196C208.191 103.76 206.645 112.13 205.656 120.575C205.656 122.605 205.085 124.634 204.958 126.918C203.988 135.342 203.459 143.811 203.372 152.29C203.309 154.383 203.309 156.54 203.309 158.633Z" fill="url(#paint4_linear_118_571)"/>
<path d="M337.422 94.4977C319.516 94.4977 305.001 79.9827 305.001 62.0775C305.001 44.1723 319.516 29.6573 337.422 29.6573C355.327 29.6573 369.842 44.1723 369.842 62.0775C369.842 79.9827 355.327 94.4977 337.422 94.4977Z" fill="#FFDD5C"/>
<path d="M167.533 79.3447C167.509 82.6131 168.156 85.8517 169.436 88.8593C171.347 84.2057 174.599 80.2255 178.778 77.4244C182.957 74.6232 187.874 73.1276 192.905 73.1276C197.936 73.1276 202.853 74.6232 207.032 77.4244C211.211 80.2255 214.463 84.2057 216.375 88.8593C216.81 90.0736 217.129 91.3267 217.326 92.6017C217.643 94.1875 217.833 95.7732 218.214 97.359C218.214 97.359 218.214 97.6762 218.214 97.8664C218.244 97.3171 218.244 96.7666 218.214 96.2172C218.214 94.9486 218.722 93.7435 218.912 92.4748V91.5234C220.265 86.1774 223.379 81.4428 227.752 78.0827C232.125 74.7226 237.501 72.9327 243.015 73.0016C248.168 72.8837 253.235 74.338 257.541 77.1708C261.847 80.0037 265.188 84.0807 267.119 88.8593C268.399 85.8517 269.046 82.6131 269.022 79.3447C269.022 72.6155 266.349 66.162 261.591 61.4038C256.832 56.6456 250.379 53.9724 243.65 53.9724C229.632 53.9724 218.277 71.6696 218.277 85.6878C218.277 71.6696 206.923 53.9724 192.905 53.9724C186.176 53.9724 179.723 56.6456 174.964 61.4038C170.206 66.162 167.533 72.6155 167.533 79.3447Z" fill="url(#paint5_linear_118_571)"/>
<path d="M218.025 97.9302C221.23 96.8697 224.629 96.5233 227.983 96.9153C232.797 97.5673 237.259 99.7982 240.669 103.258L241.938 104.59C244.416 107.557 246.072 111.122 246.74 114.928C247.408 118.735 247.064 122.651 245.744 126.284C248.894 125.28 251.748 123.516 254.053 121.146C258.217 116.94 260.539 111.253 260.509 105.335C260.48 99.4166 258.1 93.7527 253.895 89.5891C249.689 85.4254 244.001 83.103 238.083 83.1327C232.165 83.1625 226.501 85.5419 222.338 89.7476C221.512 90.5608 220.769 91.4532 220.118 92.4117C219.22 93.6045 218.475 94.9042 217.898 96.281C217.722 96.6503 217.574 97.0319 217.454 97.4227C217.454 97.4227 218.025 97.8033 218.025 97.9302Z" fill="url(#paint6_linear_118_571)"/>
<path d="M181.678 121.082C184.004 123.426 186.852 125.187 189.988 126.22C188.814 122.924 188.438 119.397 188.89 115.927C189.343 112.458 190.612 109.145 192.593 106.26C194.573 103.376 197.21 101.002 200.285 99.3337C203.361 97.6651 206.788 96.7494 210.286 96.6615C212.921 96.6079 215.544 97.0379 218.024 97.9301C217.444 96.1892 216.611 94.5435 215.55 93.046C214.813 91.9455 213.963 90.9251 213.013 90.0013C208.849 85.7956 203.186 83.4161 197.268 83.3864C191.35 83.3567 185.662 85.6791 181.456 89.8427C177.251 94.0064 174.871 99.6702 174.841 105.588C174.812 111.506 177.134 117.194 181.298 121.399L181.678 121.082Z" fill="url(#paint7_linear_118_571)"/>
<path d="M204.958 126.918C205.272 126.978 205.595 126.978 205.909 126.918H222.401C222.401 124.761 222.401 122.668 222.401 120.575H205.529C205.338 122.604 205.085 124.634 204.958 126.918ZM203.309 158.633H223.226H224.05C224.05 156.54 223.606 154.51 223.416 152.29H203.372C203.309 154.383 203.309 156.54 203.309 158.633ZM204.133 177.662C204.133 179.819 204.514 181.912 204.768 184.005H227.476H228.364C227.92 181.975 227.476 179.946 227.032 177.662H204.133Z" fill="#85674E"/>
<defs>
<linearGradient id="paint0_linear_118_571" x1="177.611" y1="235.658" x2="99.2041" y2="371.462" gradientUnits="userSpaceOnUse">
<stop stop-color="#77C6FF"/>
<stop offset="0.607292" stop-color="#FFCBAE"/>
</linearGradient>
<linearGradient id="paint1_linear_118_571" x1="334.344" y1="235.66" x2="412.75" y2="371.464" gradientUnits="userSpaceOnUse">
<stop stop-color="#60BCFF"/>
<stop offset="0.607292" stop-color="#F6C3A7"/>
</linearGradient>
<radialGradient id="paint2_radial_118_571" cx="0" cy="0" r="1" gradientUnits="userSpaceOnUse" gradientTransform="translate(0.415502 181.488) rotate(-45) scale(256.074 159.504)">
<stop offset="0.148958" stop-color="#7BC7FF"/>
<stop offset="1" stop-color="#4EB5FF"/>
</radialGradient>
<radialGradient id="paint3_radial_118_571" cx="0" cy="0" r="1" gradientUnits="userSpaceOnUse" gradientTransform="translate(223.55 170.451) rotate(88.6278) scale(45.0011 84.2042)">
<stop offset="0.591667" stop-color="#FFD49D"/>
<stop offset="1" stop-color="#FFE3BF" stop-opacity="0.3"/>
</radialGradient>
<linearGradient id="paint4_linear_118_571" x1="205.909" y1="148.484" x2="228.744" y2="148.484" gradientUnits="userSpaceOnUse">
<stop offset="0.305208" stop-color="#B18968"/>
<stop offset="1" stop-color="#D3AB89"/>
</linearGradient>
<linearGradient id="paint5_linear_118_571" x1="218.277" y1="53.9724" x2="218.277" y2="97.8664" gradientUnits="userSpaceOnUse">
<stop stop-color="#8FEC5E"/>
<stop offset="0.711458" stop-color="#92AF82"/>
</linearGradient>
<linearGradient id="paint6_linear_118_571" x1="238.982" y1="83.1324" x2="238.982" y2="126.284" gradientUnits="userSpaceOnUse">
<stop stop-color="#8FEC5E"/>
<stop offset="0.711458" stop-color="#92AF82"/>
</linearGradient>
<linearGradient id="paint7_linear_118_571" x1="196.433" y1="83.3861" x2="196.433" y2="126.22" gradientUnits="userSpaceOnUse">
<stop stop-color="#8FEC5E"/>
<stop offset="0.711458" stop-color="#92AF82"/>
</linearGradient>
</defs>
</svg>
